<svg width="367.96982421875px" height="121.39999999999999px" xmlns="http://www.w3.org/2000/svg" viewBox="66.01508789062501 14.300000000000004 367.96982421875 121.39999999999999" style="background: rgba(0, 0, 0, 0);" preserveAspectRatio="xMidYMid"><defs><linearGradient id="editing-gradow-gradient" x1="0" x2="1" y1="0.5" y2="0.5" gradientUnits="objectBoundingBox"><stop offset="0" stop-color="#f0f"></stop><stop offset="1" stop-color="#0ff"></stop></linearGradient><filter id="editing-gradow-filter" x="-100%" y="-100%" width="300%" height="300%"><feFlood flood-color="#fffcd9" result="flood"></feFlood><feComposite operator="in" in2="SourceAlpha" in="flood" result="shadow"></feComposite><feOffset dx="-4" dy="-4" in="SourceGraphic" result="offset-1"></feOffset><feOffset dx="4" dy="4" in="shadow" result="offset-2"></feOffset><feMerge><feMergeNode in="offset-2"></feMergeNode><feMergeNode in="offset-1"></feMergeNode></feMerge></filter></defs><g filter="url(#editing-gradow-filter)"><g transform="translate(122.0328036248684, 99.03000068664551)"><path d="M24.96-4.80L24.96-4.80L24.96-4.80Q24.96-9.28 26.75-18.24L26.75-18.24L17.28-18.24L13.76 0L0.38 0L8.51-42.24L22.02-42.24L18.30-23.36L27.78-23.36L31.30-42.24L44.80-42.24L44.80-42.24Q43.90-37.50 42.75-32.19L42.75-32.19L40.58-21.76L40.58-21.76Q38.14-9.60 38.14-4.29L38.14-4.29L38.14-4.29Q38.14-2.11 38.85-0.90L38.85-0.90L38.85-0.90Q35.65 1.28 31.90 1.28L31.90 1.28L31.90 1.28Q28.16 1.28 26.56-0.51L26.56-0.51L26.56-0.51Q24.96-2.30 24.96-4.80ZM61.70-3.52L61.70-3.52L61.70-3.52Q59.71 1.28 53.38 1.28L53.38 1.28L53.38 1.28Q50.11 1.28 48.06-0.96L48.06-0.96L48.06-0.96Q46.34-2.94 46.34-4.93L46.34-4.93L46.34-4.93Q46.34-10.11 48.70-20.22L48.70-20.22L51.07-32.64L64.06-33.92L60.16-13.70L60.16-13.70Q59.07-8.96 59.07-7.30L59.07-7.30L59.07-7.30Q59.07-3.65 61.70-3.52ZM52.22-41.54L52.22-41.54L52.22-41.54Q52.22-44.03 54.30-45.38L54.30-45.38L54.30-45.38Q56.38-46.72 59.39-46.72L59.39-46.72L59.39-46.72Q62.40-46.72 64.22-45.38L64.22-45.38L64.22-45.38Q66.05-44.03 66.05-41.54L66.05-41.54L66.05-41.54Q66.05-39.04 64.03-37.76L64.03-37.76L64.03-37.76Q62.02-36.48 59.01-36.48L59.01-36.48L59.01-36.48Q56-36.48 54.11-37.76L54.11-37.76L54.11-37.76Q52.22-39.04 52.22-41.54ZM87.17-17.98L87.17-17.98L87.17-17.98Q89.47-22.08 89.47-26.24L89.47-26.24L89.47-26.24Q89.47-28.99 87.49-28.99L87.49-28.99L87.49-28.99Q85.95-28.99 84.35-26.37L84.35-26.37L84.35-26.37Q82.69-23.74 82.18-20.35L82.18-20.35L78.85 0L65.60 1.28L72.13-32.64L82.69-33.92L81.54-27.46L81.54-27.46Q84.67-33.92 91.71-33.92L91.71-33.92L91.71-33.92Q95.42-33.92 97.44-32L97.44-32L97.44-32Q99.46-30.08 99.46-26.14L99.46-26.14L99.46-26.14Q99.46-22.21 96.86-19.71L96.86-19.71L96.86-19.71Q94.27-17.22 89.86-17.22L89.86-17.22L89.86-17.22Q87.94-17.22 87.17-17.98ZM126.40-10.82L126.40-10.82L126.40-10.82Q128-9.73 128-7.33L128-7.33L128-7.33Q128-4.93 126.78-3.39L126.78-3.39L126.78-3.39Q125.57-1.86 123.58-0.83L123.58-0.83L123.58-0.83Q119.49 1.28 115.07 1.28L115.07 1.28L115.07 1.28Q110.66 1.28 108.06 0.32L108.06 0.32L108.06 0.32Q105.47-0.64 103.74-2.43L103.74-2.43L103.74-2.43Q100.35-5.82 100.35-12.03L100.35-12.03L100.35-12.03Q100.35-21.70 105.60-27.58L105.60-27.58L105.60-27.58Q111.23-33.92 121.02-33.92L121.02-33.92L121.02-33.92Q127.10-33.92 130.11-31.36L130.11-31.36L130.11-31.36Q132.35-29.44 132.35-26.30L132.35-26.30L132.35-26.30Q132.35-15.04 112.90-15.04L112.90-15.04L112.90-15.04Q112.64-13.38 112.64-11.97L112.64-11.97L112.64-11.97Q112.64-9.02 113.95-7.90L113.95-7.90L113.95-7.90Q115.26-6.78 117.70-6.78L117.70-6.78L117.70-6.78Q120.13-6.78 122.72-7.90L122.72-7.90L122.72-7.90Q125.31-9.02 126.40-10.82ZM113.34-17.79L113.34-17.79L113.34-17.79Q117.89-17.79 120.51-20.61L120.51-20.61L120.51-20.61Q123.14-23.30 123.14-27.58L123.14-27.58L123.14-27.58Q123.14-29.06 122.59-29.86L122.59-29.86L122.59-29.86Q122.05-30.66 120.96-30.66L120.96-30.66L120.96-30.66Q119.87-30.66 118.94-30.24L118.94-30.24L118.94-30.24Q118.02-29.82 117.06-28.42L117.06-28.42L117.06-28.42Q114.69-25.22 113.34-17.79ZM153.15 0L145.79 0L157.38-42.24L170.75-42.24L173.70-18.11L185.60-42.24L196.80-42.24L197.95-10.62L197.95-10.62Q198.21-4.35 201.28-2.43L201.28-2.43L201.28-2.43Q200.58-1.15 198.53 0.06L198.53 0.06L198.53 0.06Q196.48 1.28 193.76 1.28L193.76 1.28L193.76 1.28Q191.04 1.28 189.44 0.51L189.44 0.51L189.44 0.51Q187.84-0.26 186.94-1.54L186.94-1.54L186.94-1.54Q185.34-3.84 185.34-8.26L185.34-8.26L185.34-28.03L172.74 0L164.80 0L160.32-28.74L153.15 0ZM229.95-10.82L229.95-10.82L229.95-10.82Q231.55-9.73 231.55-7.33L231.55-7.33L231.55-7.33Q231.55-4.93 230.34-3.39L230.34-3.39L230.34-3.39Q229.12-1.86 227.14-0.83L227.14-0.83L227.14-0.83Q223.04 1.28 218.62 1.28L218.62 1.28L218.62 1.28Q214.21 1.28 211.62 0.32L211.62 0.32L211.62 0.32Q209.02-0.64 207.30-2.43L207.30-2.43L207.30-2.43Q203.90-5.82 203.90-12.03L203.90-12.03L203.90-12.03Q203.90-21.70 209.15-27.58L209.15-27.58L209.15-27.58Q214.78-33.92 224.58-33.92L224.58-33.92L224.58-33.92Q230.66-33.92 233.66-31.36L233.66-31.36L233.66-31.36Q235.90-29.44 235.90-26.30L235.90-26.30L235.90-26.30Q235.90-15.04 216.45-15.04L216.45-15.04L216.45-15.04Q216.19-13.38 216.19-11.97L216.19-11.97L216.19-11.97Q216.19-9.02 217.50-7.90L217.50-7.90L217.50-7.90Q218.82-6.78 221.25-6.78L221.25-6.78L221.25-6.78Q223.68-6.78 226.27-7.90L226.27-7.90L226.27-7.90Q228.86-9.02 229.95-10.82ZM216.90-17.79L216.90-17.79L216.90-17.79Q221.44-17.79 224.06-20.61L224.06-20.61L224.06-20.61Q226.69-23.30 226.69-27.58L226.69-27.58L226.69-27.58Q226.69-29.06 226.14-29.86L226.14-29.86L226.14-29.86Q225.60-30.66 224.51-30.66L224.51-30.66L224.51-30.66Q223.42-30.66 222.50-30.24L222.50-30.24L222.50-30.24Q221.57-29.82 220.61-28.42L220.61-28.42L220.61-28.42Q218.24-25.22 216.90-17.79ZM236.35-3.78L236.35-3.78L236.35-3.78Q236.35-6.21 238.18-7.52L238.18-7.52L238.18-7.52Q240-8.83 242.69-8.83L242.69-8.83L242.69-8.83Q245.38-8.83 247.07-7.52L247.07-7.52L247.07-7.52Q248.77-6.21 248.77-3.78L248.77-3.78L248.77-3.78Q248.77-1.34 246.88 0L246.88 0L246.88 0Q244.99 1.34 242.30 1.34L242.30 1.34L242.30 1.34Q239.62 1.34 237.98 0L237.98 0L237.98 0Q236.35-1.34 236.35-3.78ZM239.81-15.81L239.81-15.81L239.81-15.81Q239.81-16.26 239.94-16.90L239.94-16.90L244.93-42.62L244.93-42.62Q247.30-43.52 250.11-43.52L250.11-43.52L250.11-43.52Q252.93-43.52 254.40-41.73L254.40-41.73L254.40-41.73Q255.87-39.94 255.87-37.28L255.87-37.28L255.87-37.28Q255.87-34.62 254.85-31.65L254.85-31.65L254.85-31.65Q253.82-28.67 252.58-25.66L252.58-25.66L252.58-25.66Q251.33-22.66 250.27-19.55L250.27-19.55L250.27-19.55Q249.22-16.45 249.15-13.18L249.15-13.18L249.15-13.18Q247.68-11.52 245.12-11.52L245.12-11.52L245.12-11.52Q242.56-11.52 241.18-12.70L241.18-12.70L241.18-12.70Q239.81-13.89 239.81-15.81Z" fill="url(#editing-gradow-gradient)"></path></g></g><style>text {
  font-size: 64px;
  font-family: Arial Black;
  dominant-baseline: central;
  text-anchor: middle;
}</style></svg>